<?xml version="1.0" standalone="no"?><!DOCTYPE svg PUBLIC "-//W3C//DTD SVG 1.1//EN" "http://www.w3.org/Graphics/SVG/1.1/DTD/svg11.dtd"><svg t="1557838597510" class="icon" style="" viewBox="0 0 1083 1024" version="1.1" xmlns="http://www.w3.org/2000/svg" p-id="2997" xmlns:xlink="http://www.w3.org/1999/xlink" width="211.5234375" height="200"><defs><style type="text/css"></style></defs><path d="M1065.366215 716.74076a158.533818 158.533818 0 0 0-174.198479-60.754512L704.30043 468.340364a347.229091 347.229091 0 0 1 47.85719-147.667571h45.978446c122.566876 0 222.292628-100.131967 222.292628-223.215074V1.794116h-95.265851c-122.575339 0-222.292628 100.131967-222.292628 223.215074v54.356628a412.94281 412.94281 0 0 0-31.760926 61.135339 413.044364 413.044364 0 0 0-31.752463-61.135339v-54.356628C639.356826 101.934545 539.631074 1.794116 417.064198 1.794116H321.789884v95.663603c0 123.083107 99.725752 223.215074 222.301091 223.215074h45.978446a347.262942 347.262942 0 0 1 47.857191 147.667571L479.189686 627.737388l-10.544661-9.30909c-40.604562-35.882314-93.51405-55.651438-148.96238-55.651438-54.390479 0-106.28443 19.041322-146.567405 53.620363-17.264132-24.550612-45.707636-40.621488-77.849389-40.621487H0v446.430148h713.499504L1083.239669 742.002248l-17.873454-25.261488z m-298.991075-491.73157c0-87.911669 71.231471-159.439339 158.77924-159.439339h31.760926v31.887868c0 87.920132-71.231471 159.439339-158.77924 159.439339h-31.760926v-31.887868z m-190.531702 31.887868H544.07405c-87.547769 0-158.77924-71.519207-158.77924-159.439339V65.569851h31.760926c87.547769 0 158.77924 71.527669 158.779239 159.439339v31.887868zM127.026777 958.430149H63.513388v-318.878678h31.752463c17.518017 0 31.760926 14.302149 31.760926 31.887868v286.99081zM671.100826 525.201983l160.878017 161.538116-121.475174 80.35438h-39.487471a159.033124 159.033124 0 0 0 31.837091-95.663603v-31.887868H557.242182L671.100826 525.201983z m21.123174 433.21124H190.540165V685.859967l22.130248-19.549091c60.001322-53.027967 154.014678-53.027967 214.024463 0 8.40357 5.695471 31.617058 36.813223 77.849388 36.813223h129.362513c-13.10043 37.117884-48.424198 63.978843-89.824265 63.978843h-131.258181v63.784198h316.729124l153.769256-101.714512a94.724231 94.724231 0 0 1 108.408595 2.284959l-299.498843 226.972562z" fill="#1afa29" p-id="2998"></path></svg>